<svg width="100" height="100" viewBox="0 0 100 100" fill="none" xmlns="http://www.w3.org/2000/svg">
<path d="M50 35C46.0218 35 42.2064 36.5804 39.3934 39.3934C36.5804 42.2064 35 46.0218 35 50C35 53.9782 36.5804 57.7936 39.3934 60.6066C42.2064 63.4196 46.0218 65 50 65C53.9782 65 57.7936 63.4196 60.6066 60.6066C63.4196 57.7936 65 53.9782 65 50C65 46.0218 63.4196 42.2064 60.6066 39.3934C57.7936 36.5804 53.9782 35 50 35ZM50 25C56.6304 25 62.9893 27.6339 67.6777 32.3223C72.3661 37.0107 75 43.3696 75 50C75 56.6304 72.3661 62.9893 67.6777 67.6777C62.9893 72.3661 56.6304 75 50 75C43.3696 75 37.0107 72.3661 32.3223 67.6777C27.6339 62.9893 25 56.6304 25 50C25 43.3696 27.6339 37.0107 32.3223 32.3223C37.0107 27.6339 43.3696 25 50 25V25ZM82.5 23.75C82.5 25.4076 81.8415 26.9973 80.6694 28.1694C79.4973 29.3415 77.9076 30 76.25 30C74.5924 30 73.0027 29.3415 71.8306 28.1694C70.6585 26.9973 70 25.4076 70 23.75C70 22.0924 70.6585 20.5027 71.8306 19.3306C73.0027 18.1585 74.5924 17.5 76.25 17.5C77.9076 17.5 79.4973 18.1585 80.6694 19.3306C81.8415 20.5027 82.5 22.0924 82.5 23.75V23.75ZM50 10C37.63 10 35.61 10.035 29.855 10.29C25.935 10.475 23.305 11 20.865 11.95C18.695 12.79 17.13 13.795 15.465 15.465C13.9 16.977 12.6968 18.8229 11.945 20.865C10.995 23.315 10.47 25.94 10.29 29.855C10.03 35.375 10 37.305 10 50C10 62.37 10.035 64.39 10.29 70.145C10.475 74.06 11 76.695 11.945 79.13C12.795 81.305 13.795 82.87 15.455 84.53C17.14 86.21 18.705 87.215 20.855 88.045C23.325 89 25.955 89.53 29.855 89.71C35.375 89.97 37.305 90 50 90C62.37 90 64.39 89.965 70.145 89.71C74.055 89.525 76.69 89 79.13 88.055C81.295 87.21 82.87 86.205 84.53 84.545C86.215 82.86 87.22 81.295 88.05 79.145C89 76.68 89.53 74.045 89.71 70.145C89.97 64.625 90 62.695 90 50C90 37.63 89.965 35.61 89.71 29.855C89.525 25.945 89 23.305 88.05 20.865C87.2965 18.825 86.0954 16.9798 84.535 15.465C83.0237 13.8992 81.1775 12.6958 79.135 11.945C76.685 10.995 74.055 10.47 70.145 10.29C64.625 10.03 62.695 10 50 10ZM50 0C63.585 0 65.28 0.0499997 70.61 0.3C75.935 0.55 79.56 1.385 82.75 2.625C86.05 3.895 88.83 5.615 91.61 8.39C94.1525 10.8895 96.1198 13.9129 97.375 17.25C98.61 20.435 99.45 24.065 99.7 29.39C99.935 34.72 100 36.415 100 50C100 63.585 99.95 65.28 99.7 70.61C99.45 75.935 98.61 79.56 97.375 82.75C96.1234 86.0889 94.1556 89.1131 91.61 91.61C89.1098 94.1516 86.0865 96.1188 82.75 97.375C79.565 98.61 75.935 99.45 70.61 99.7C65.28 99.935 63.585 100 50 100C36.415 100 34.72 99.95 29.39 99.7C24.065 99.45 20.44 98.61 17.25 97.375C13.9116 96.1224 10.8876 94.1547 8.39 91.61C5.84703 89.1109 3.87966 86.0873 2.625 82.75C1.385 79.565 0.55 75.935 0.3 70.61C0.0649997 65.28 0 63.585 0 50C0 36.415 0.0499997 34.72 0.3 29.39C0.55 24.06 1.385 20.44 2.625 17.25C3.87618 13.9109 5.84402 10.8866 8.39 8.39C10.8884 5.84616 13.9121 3.87865 17.25 2.625C20.44 1.385 24.06 0.55 29.39 0.3C34.72 0.0649997 36.415 0 50 0Z" fill="black"/>
</svg>
