<svg width="1306" height="401" viewBox="0 0 1306 401" fill="none" xmlns="http://www.w3.org/2000/svg">
<path d="M392.928 85.2197C392.935 85.1978 392.946 85.1788 392.953 85.1569C392.968 85.1121 392.977 85.0673 392.99 85.022C393.024 84.912 393.056 84.8017 393.082 84.6896C393.101 84.6144 393.116 84.5392 393.131 84.4642C393.152 84.3588 393.17 84.2534 393.185 84.147C393.197 84.0624 393.207 83.9777 393.214 83.8935C393.223 83.7973 393.231 83.7012 393.235 83.6039C393.239 83.508 393.24 83.4128 393.239 83.3174C393.238 83.2312 393.236 83.1446 393.231 83.0578C393.225 82.9519 393.217 82.8474 393.205 82.7429C393.196 82.6649 393.187 82.5861 393.175 82.5074C393.158 82.3955 393.136 82.2849 393.113 82.1745C393.103 82.1271 393.098 82.0801 393.087 82.033C393.08 82.005 393.07 81.9779 393.062 81.9502C393.036 81.8468 393.005 81.7446 392.973 81.6426C392.947 81.5601 392.922 81.4775 392.891 81.3968C392.861 81.3139 392.826 81.2328 392.792 81.1515C392.752 81.0582 392.714 80.964 392.671 80.874C392.639 80.8085 392.603 80.7448 392.569 80.6806C392.516 80.5813 392.463 80.4818 392.406 80.3867C392.37 80.3283 392.33 80.2724 392.293 80.2153C392.23 80.1206 392.169 80.0264 392.101 79.9361C392.054 79.8733 392.003 79.8148 391.953 79.7544C391.889 79.6764 391.827 79.5972 391.759 79.5224C391.694 79.4509 391.624 79.3842 391.555 79.3159C391.497 79.2576 391.44 79.1981 391.379 79.1434C391.298 79.0702 391.212 79.0013 391.127 78.9323C391.071 78.8872 391.018 78.8409 390.96 78.7979C390.873 78.7325 390.781 78.6727 390.689 78.6122C390.627 78.5711 390.566 78.5282 390.502 78.4891C390.418 78.4384 390.33 78.3924 390.243 78.3455C390.163 78.3024 390.083 78.2593 390.002 78.2205C389.927 78.1848 389.849 78.1534 389.773 78.1212C389.672 78.0783 389.572 78.0377 389.469 78.0009C389.443 77.9916 389.418 77.9789 389.392 77.9705L335.578 59.7272C335.541 59.715 335.505 59.7074 335.468 59.696C335.393 59.6725 335.32 59.648 335.245 59.6278C335.199 59.6156 335.153 59.6047 335.107 59.5939C335.033 59.5758 334.96 59.5608 334.885 59.546C334.826 59.5338 334.767 59.5206 334.706 59.5102C334.664 59.5031 334.623 59.4982 334.582 59.4925C334.484 59.4785 334.387 59.4675 334.29 59.4588C334.254 59.4557 334.22 59.4483 334.184 59.446C334.173 59.4455 334.162 59.4458 334.152 59.4451C334.118 59.4432 334.084 59.4428 334.049 59.441C333.937 59.435 333.827 59.4343 333.716 59.4352C333.673 59.436 333.631 59.4329 333.589 59.4344C333.561 59.4356 333.534 59.4396 333.507 59.4408C333.395 59.4464 333.285 59.4558 333.174 59.4675C333.095 59.4763 333.016 59.4851 332.937 59.497C332.841 59.5114 332.746 59.5294 332.651 59.549C332.56 59.5676 332.47 59.5868 332.381 59.6096C332.3 59.6307 332.22 59.6545 332.139 59.6792C332.107 59.6891 332.075 59.6968 332.044 59.7067C332.023 59.7133 332.001 59.7176 331.981 59.7249C331.937 59.7399 331.895 59.7585 331.853 59.7742C331.78 59.801 331.707 59.8308 331.635 59.8606C331.611 59.8702 331.586 59.8791 331.563 59.8892C331.531 59.9032 331.498 59.9134 331.467 59.9279C331.428 59.9458 331.391 59.967 331.353 59.9854C331.282 60.0196 331.212 60.0573 331.141 60.0945C331.053 60.1411 330.967 60.1883 330.882 60.2396C330.808 60.2846 330.736 60.3322 330.664 60.3805C330.611 60.4158 330.556 60.4483 330.505 60.4855C330.483 60.5009 330.462 60.5197 330.441 60.5358C330.364 60.5923 330.29 60.6527 330.217 60.713C330.166 60.7546 330.114 60.7944 330.065 60.8373C330.06 60.8416 330.054 60.8454 330.049 60.8505L257.069 125.832L192.651 76.496C192.648 76.4935 192.645 76.492 192.642 76.4896C192.622 76.4741 192.602 76.4596 192.581 76.4443C192.531 76.4072 192.479 76.3754 192.428 76.3402C192.33 76.2719 192.231 76.2028 192.128 76.1411C192.069 76.1048 192.005 76.0742 191.944 76.0406C191.847 75.9868 191.751 75.9319 191.65 75.8836C191.555 75.8387 191.457 75.8008 191.36 75.7602C191.352 75.7574 191.345 75.7536 191.337 75.7508C191.273 75.7249 191.21 75.6948 191.145 75.6708C191.048 75.6349 190.946 75.6079 190.846 75.5774C190.77 75.5543 190.695 75.5279 190.619 75.5081C190.526 75.4843 190.432 75.4688 190.337 75.4501C190.251 75.4328 190.164 75.4114 190.077 75.3981C189.994 75.3853 189.909 75.3799 189.824 75.3714C189.723 75.3605 189.623 75.348 189.522 75.3426C189.509 75.3417 189.497 75.3393 189.484 75.3392C189.395 75.3348 189.308 75.34 189.22 75.3401C189.141 75.3404 189.061 75.3377 188.981 75.3413C188.947 75.3431 188.914 75.3433 188.881 75.3451L18.1581 85.0646C18.1018 85.068 18.0477 85.0778 17.9917 85.0827C17.8895 85.0915 17.7882 85.101 17.6873 85.115C17.5945 85.1279 17.5043 85.1448 17.4135 85.1626C17.3271 85.1794 17.2409 85.1969 17.1554 85.2173C17.0575 85.2408 16.9612 85.2677 16.8654 85.2968C16.7875 85.3201 16.7092 85.345 16.6321 85.3713C16.5364 85.4043 16.4424 85.4408 16.3496 85.4793C16.2722 85.511 16.1959 85.5441 16.1199 85.5786C16.0322 85.619 15.9467 85.662 15.8617 85.7072C15.7827 85.7486 15.7043 85.7923 15.6272 85.838C15.5493 85.8838 15.4741 85.9314 15.3987 85.9813C15.3193 86.0337 15.2417 86.0873 15.1649 86.1438C15.0938 86.1958 15.0257 86.2502 14.9571 86.3055C14.8832 86.3651 14.8105 86.4261 14.7392 86.4898C14.6699 86.5523 14.6034 86.6164 14.5379 86.6819C14.4748 86.7444 14.4119 86.8077 14.3512 86.8735C14.2801 86.9512 14.2127 87.0311 14.1463 87.1123C14.1117 87.1548 14.0731 87.1936 14.0395 87.2374C14.0235 87.2576 14.0116 87.2791 13.9957 87.3C13.9301 87.3873 13.8691 87.4781 13.8083 87.5696C13.7645 87.6353 13.7191 87.7006 13.6781 87.768C13.6248 87.8554 13.5777 87.946 13.529 88.0363C13.4889 88.1112 13.4471 88.185 13.4111 88.2605C13.3698 88.3466 13.3341 88.436 13.2974 88.5249C13.2629 88.607 13.2268 88.6888 13.1964 88.7715C13.1648 88.8592 13.1391 88.9486 13.1119 89.0383C13.0848 89.1257 13.056 89.2119 13.0337 89.2997C13.0115 89.3875 12.9952 89.4777 12.9771 89.5668C12.9582 89.6592 12.9378 89.7512 12.9236 89.8441C12.9101 89.9297 12.9032 90.017 12.8939 90.104C12.8835 90.2029 12.8717 90.3022 12.8669 90.4013C12.8625 90.4833 12.8632 90.5671 12.8623 90.6506C12.8614 90.7566 12.8603 90.8618 12.8654 90.9672C12.8665 90.9942 12.8644 91.0211 12.8662 91.0479C12.8693 91.1063 12.8796 91.1621 12.8849 91.22C12.8943 91.3204 12.9036 91.4209 12.9182 91.5208C12.9313 91.6142 12.9486 91.7057 12.9665 91.7971C12.9837 91.8848 13.0015 91.9723 13.0223 92.0591C13.0455 92.1562 13.0729 92.2516 13.1011 92.3467C13.125 92.4273 13.1502 92.5069 13.1778 92.5866C13.2105 92.6815 13.2465 92.774 13.284 92.8661C13.3162 92.9456 13.3505 93.0245 13.3861 93.1023C13.4262 93.1891 13.4681 93.274 13.513 93.3582C13.5555 93.439 13.5993 93.5188 13.6453 93.598C13.6908 93.675 13.7382 93.7508 13.787 93.8255C13.8394 93.9055 13.8932 93.9852 13.9496 94.0627C14.0013 94.1336 14.055 94.2032 14.1101 94.2717C14.1696 94.3461 14.2304 94.4195 14.294 94.4914C14.3555 94.5615 14.4201 94.6277 14.4848 94.6947C14.5473 94.7591 14.6104 94.8225 14.6768 94.8837C14.7533 94.9548 14.8327 95.0222 14.9128 95.0886C14.9553 95.1243 14.994 95.1633 15.0385 95.1977L60.537 130.843L18.1502 140.98C18.1005 140.992 18.0544 141.009 18.0058 141.022C17.9056 141.05 17.8058 141.078 17.7069 141.11C17.6202 141.139 17.535 141.17 17.4507 141.202C17.3678 141.233 17.2855 141.267 17.2042 141.302C17.1118 141.342 17.0217 141.385 16.9327 141.43C16.8609 141.466 16.7904 141.504 16.7202 141.543C16.6295 141.594 16.5415 141.646 16.4544 141.702C16.3866 141.744 16.32 141.789 16.2538 141.835C16.1724 141.892 16.0927 141.95 16.0153 142.01C15.9462 142.064 15.8785 142.12 15.8118 142.177C15.7433 142.236 15.6756 142.296 15.6102 142.358C15.5402 142.424 15.4723 142.493 15.4055 142.562C15.3481 142.623 15.2923 142.683 15.2376 142.745C15.1708 142.821 15.1068 142.9 15.0441 142.98C14.9932 143.045 14.9447 143.11 14.8973 143.177C14.8401 143.257 14.7839 143.339 14.7305 143.423C14.6815 143.499 14.6358 143.576 14.5905 143.655C14.5457 143.732 14.5027 143.811 14.4617 143.892C14.4138 143.986 14.3694 144.081 14.3268 144.178C14.3062 144.224 14.2823 144.266 14.2626 144.313C14.2514 144.34 14.2441 144.368 14.2336 144.395C14.1922 144.5 14.1565 144.606 14.1209 144.712C14.0973 144.785 14.0723 144.858 14.0517 144.93C14.023 145.033 13.9991 145.136 13.9754 145.241C13.9574 145.321 13.9386 145.401 13.9237 145.48C13.9065 145.576 13.8949 145.673 13.8826 145.77C13.8714 145.859 13.8588 145.949 13.8516 146.038C13.8448 146.126 13.843 146.215 13.8404 146.305C13.837 146.403 13.8336 146.502 13.8362 146.6C13.8378 146.682 13.845 146.763 13.8497 146.844C13.8567 146.951 13.8636 147.057 13.8765 147.163C13.8855 147.24 13.8991 147.316 13.9121 147.393C13.9299 147.503 13.9494 147.613 13.9738 147.722C13.9785 147.751 13.9815 147.78 13.9885 147.809C14.0005 147.859 14.0178 147.906 14.031 147.955C14.0582 148.056 14.0862 148.156 14.1192 148.256C14.1478 148.343 14.179 148.428 14.2111 148.514C14.2428 148.598 14.2766 148.681 14.3123 148.762C14.3522 148.855 14.3955 148.946 14.4401 149.035C14.4769 149.108 14.5142 149.18 14.5535 149.251C14.6038 149.341 14.6557 149.429 14.7106 149.517C14.7543 149.586 14.7991 149.654 14.8461 149.721C14.9017 149.802 14.9594 149.882 15.0189 149.959C15.0737 150.03 15.1306 150.1 15.1879 150.169C15.2459 150.236 15.3044 150.303 15.3647 150.368C15.4314 150.44 15.5013 150.51 15.5719 150.579C15.6303 150.635 15.69 150.691 15.7507 150.745C15.8273 150.813 15.9064 150.879 15.9874 150.943C16.0511 150.993 16.1154 151.042 16.1808 151.089C16.2613 151.148 16.3436 151.204 16.4284 151.259C16.5035 151.308 16.5802 151.354 16.6582 151.399C16.7362 151.444 16.8141 151.489 16.8952 151.531C16.9887 151.579 17.0835 151.623 17.1788 151.667C17.2248 151.688 17.2669 151.712 17.3141 151.732L165.295 213.813L178.215 368.925C178.217 368.943 178.219 368.961 178.22 368.98L178.222 368.999C178.223 369.022 178.229 369.044 178.231 369.068C178.247 369.23 178.267 369.391 178.295 369.549C178.306 369.611 178.323 369.671 178.336 369.733C178.362 369.85 178.387 369.968 178.419 370.083C178.445 370.173 178.476 370.26 178.506 370.348C178.534 370.431 178.56 370.515 178.591 370.597C178.631 370.699 178.677 370.798 178.723 370.896C178.753 370.962 178.781 371.03 178.814 371.094C178.864 371.194 178.92 371.289 178.976 371.386C179.011 371.448 179.046 371.511 179.084 371.571C179.14 371.659 179.2 371.744 179.261 371.829C179.307 371.895 179.353 371.961 179.403 372.025C179.458 372.096 179.518 372.165 179.577 372.233C179.639 372.305 179.7 372.378 179.765 372.447C179.818 372.503 179.874 372.555 179.929 372.609C180.005 372.684 180.082 372.759 180.164 372.829C180.215 372.874 180.269 372.915 180.322 372.958C180.411 373.03 180.5 373.101 180.594 373.168C180.65 373.208 180.709 373.243 180.766 373.282C180.859 373.343 180.952 373.405 181.05 373.461C181.122 373.503 181.198 373.54 181.273 373.579C181.358 373.623 181.442 373.668 181.53 373.708C181.637 373.757 181.747 373.799 181.858 373.841C181.918 373.864 181.976 373.889 182.036 373.91C182.189 373.962 182.344 374.006 182.502 374.045C182.524 374.051 182.545 374.058 182.567 374.064C182.569 374.064 182.572 374.064 182.574 374.065C182.781 374.114 182.992 374.15 183.206 374.176C183.259 374.181 183.311 374.182 183.364 374.187C183.509 374.199 183.656 374.209 183.803 374.211C183.901 374.211 183.997 374.206 184.093 374.202C184.165 374.199 184.236 374.201 184.309 374.195C184.333 374.194 184.356 374.187 184.38 374.184C184.642 374.159 184.901 374.123 185.154 374.063C185.157 374.062 185.16 374.06 185.162 374.06C185.163 374.06 185.164 374.059 185.165 374.059C185.392 374.005 185.61 373.933 185.825 373.852C185.867 373.835 185.909 373.82 185.951 373.803C186.387 373.627 186.795 373.398 187.167 373.125C187.203 373.098 187.239 373.072 187.274 373.045C187.453 372.908 187.624 372.761 187.784 372.603C187.814 372.574 187.84 372.543 187.869 372.513C188.003 372.376 188.129 372.231 188.248 372.081C188.284 372.037 188.32 371.993 188.354 371.948C188.485 371.773 188.604 371.589 188.714 371.399C188.741 371.351 188.767 371.302 188.793 371.254C188.901 371.054 189.001 370.848 189.085 370.635C189.087 370.628 189.091 370.622 189.093 370.616C189.184 370.383 189.255 370.142 189.314 369.896C189.319 369.876 189.328 369.857 189.332 369.838L210.09 279.65L328.855 189.864C328.887 189.84 328.914 189.813 328.946 189.788C329.04 189.713 329.132 189.637 329.222 189.556C329.23 189.549 329.239 189.542 329.248 189.534C329.263 189.522 329.278 189.511 329.293 189.497C329.326 189.467 329.354 189.433 329.387 189.402C329.458 189.333 329.528 189.261 329.594 189.189C329.639 189.141 329.684 189.095 329.726 189.046C329.743 189.027 329.757 189.007 329.773 188.987C329.823 188.929 329.87 188.868 329.917 188.807C329.928 188.793 329.942 188.782 329.953 188.767C329.964 188.752 329.974 188.735 329.985 188.72C330.026 188.665 330.064 188.61 330.102 188.554C330.14 188.498 330.176 188.441 330.212 188.385C330.214 188.382 330.217 188.379 330.219 188.375C330.235 188.35 330.252 188.328 330.268 188.303C330.28 188.284 330.29 188.264 330.301 188.245C330.329 188.198 330.355 188.151 330.382 188.103C330.415 188.043 330.446 187.981 330.477 187.919C330.508 187.859 330.54 187.8 330.568 187.74C330.585 187.705 330.6 187.67 330.615 187.635C330.628 187.607 330.64 187.58 330.652 187.552C330.665 187.521 330.675 187.489 330.688 187.458C330.692 187.448 330.695 187.438 330.699 187.429C330.727 187.358 330.756 187.288 330.781 187.217C330.789 187.194 330.796 187.172 330.804 187.149C330.83 187.071 330.852 186.991 330.875 186.911C330.896 186.836 330.919 186.762 330.938 186.687C330.939 186.684 330.94 186.68 330.941 186.676C330.943 186.665 330.946 186.653 330.949 186.642C330.969 186.554 330.985 186.463 331.001 186.373C331.014 186.3 331.03 186.227 331.04 186.153C331.042 186.141 331.045 186.129 331.046 186.117C331.059 186.022 331.066 185.926 331.074 185.83C331.075 185.817 331.076 185.803 331.078 185.789C331.079 185.772 331.084 185.755 331.085 185.738L331.09 185.662C331.091 185.66 331.091 185.659 331.091 185.657L336.939 101.297L388.912 88.8668C388.916 88.8659 388.92 88.8657 388.923 88.865C388.935 88.8621 388.947 88.8569 388.96 88.8539C389.162 88.804 389.357 88.7432 389.548 88.6734C389.602 88.6535 389.655 88.6301 389.708 88.6089C389.861 88.5472 390.011 88.4811 390.156 88.4075C390.21 88.3806 390.263 88.3517 390.315 88.3228C390.463 88.2424 390.605 88.1554 390.743 88.0626C390.786 88.0336 390.831 88.0058 390.873 87.9754C391.051 87.8489 391.222 87.7154 391.383 87.5703C391.387 87.5671 391.39 87.5623 391.394 87.5591C391.546 87.4209 391.688 87.2735 391.823 87.1197C391.874 87.0616 391.922 87.0011 391.971 86.9414C392.06 86.8322 392.144 86.7202 392.224 86.6054C392.27 86.5392 392.316 86.4737 392.359 86.405C392.463 86.2417 392.559 86.0741 392.645 85.9011C392.655 85.8816 392.666 85.8641 392.676 85.8446C392.773 85.641 392.854 85.4318 392.928 85.2197ZM327.207 78.55L320.559 174.456L266.23 132.846L327.207 78.55ZM33.7965 95.5372L182.671 87.0589L166.436 199.451L33.7965 95.5372ZM311.548 181.79L177.308 203.105L193.451 91.3426L311.548 181.79ZM206.975 267.794L179.243 214.287L303.943 194.487L206.975 267.794ZM199.095 277.096L186.453 332.023L178.58 237.513L199.095 277.096ZM134.032 188.421L37.6462 147.985L71.9468 139.781L134.032 188.421ZM338.911 72.8153L367.174 82.3967L337.759 89.4317L338.911 72.8153Z" fill="#D4D4D4"/>
<path d="M431.071 173.052C431.071 177.468 430.029 181.635 427.946 185.552C425.862 189.468 422.529 192.677 417.946 195.177C413.362 197.593 407.487 198.802 400.321 198.802H384.571V234.052H370.321V147.177H400.321C406.987 147.177 412.612 148.343 417.196 150.677C421.862 152.927 425.321 156.01 427.571 159.927C429.904 163.843 431.071 168.218 431.071 173.052ZM400.321 187.177C405.737 187.177 409.779 185.968 412.446 183.552C415.112 181.052 416.446 177.552 416.446 173.052C416.446 163.552 411.071 158.802 400.321 158.802H384.571V187.177H400.321ZM484.287 234.927C476.203 234.927 468.745 233.052 461.912 229.302C455.162 225.468 449.787 220.177 445.787 213.427C441.87 206.593 439.912 198.927 439.912 190.427C439.912 181.927 441.87 174.302 445.787 167.552C449.787 160.802 455.162 155.552 461.912 151.802C468.745 147.968 476.203 146.052 484.287 146.052C492.453 146.052 499.912 147.968 506.662 151.802C513.495 155.552 518.87 160.802 522.787 167.552C526.703 174.302 528.662 181.927 528.662 190.427C528.662 198.927 526.703 206.593 522.787 213.427C518.87 220.177 513.495 225.468 506.662 229.302C499.912 233.052 492.453 234.927 484.287 234.927ZM484.287 222.552C490.037 222.552 495.162 221.26 499.662 218.677C504.162 216.01 507.662 212.26 510.162 207.427C512.745 202.51 514.037 196.843 514.037 190.427C514.037 184.01 512.745 178.385 510.162 173.552C507.662 168.718 504.162 165.01 499.662 162.427C495.162 159.843 490.037 158.552 484.287 158.552C478.537 158.552 473.412 159.843 468.912 162.427C464.412 165.01 460.87 168.718 458.287 173.552C455.787 178.385 454.537 184.01 454.537 190.427C454.537 196.843 455.787 202.51 458.287 207.427C460.87 212.26 464.412 216.01 468.912 218.677C473.412 221.26 478.537 222.552 484.287 222.552ZM598.809 147.177V158.802H575.684V234.052H561.434V158.802H538.184V147.177H598.809ZM652.866 234.927C644.782 234.927 637.324 233.052 630.491 229.302C623.741 225.468 618.366 220.177 614.366 213.427C610.449 206.593 608.491 198.927 608.491 190.427C608.491 181.927 610.449 174.302 614.366 167.552C618.366 160.802 623.741 155.552 630.491 151.802C637.324 147.968 644.782 146.052 652.866 146.052C661.032 146.052 668.491 147.968 675.241 151.802C682.074 155.552 687.449 160.802 691.366 167.552C695.282 174.302 697.241 181.927 697.241 190.427C697.241 198.927 695.282 206.593 691.366 213.427C687.449 220.177 682.074 225.468 675.241 229.302C668.491 233.052 661.032 234.927 652.866 234.927ZM652.866 222.552C658.616 222.552 663.741 221.26 668.241 218.677C672.741 216.01 676.241 212.26 678.741 207.427C681.324 202.51 682.616 196.843 682.616 190.427C682.616 184.01 681.324 178.385 678.741 173.552C676.241 168.718 672.741 165.01 668.241 162.427C663.741 159.843 658.616 158.552 652.866 158.552C647.116 158.552 641.991 159.843 637.491 162.427C632.991 165.01 629.449 168.718 626.866 173.552C624.366 178.385 623.116 184.01 623.116 190.427C623.116 196.843 624.366 202.51 626.866 207.427C629.449 212.26 632.991 216.01 637.491 218.677C641.991 221.26 647.116 222.552 652.866 222.552ZM725.513 222.552H754.888V234.052H711.263V147.177H725.513V222.552ZM814.68 234.052L781.055 195.177V234.052H766.805V147.177H781.055V186.802L814.805 147.177H832.68L794.93 190.677L833.305 234.052H814.68ZM860.157 147.177V234.052H845.907V147.177H860.157ZM884.616 234.927C882.032 234.927 879.866 234.052 878.116 232.302C876.366 230.552 875.491 228.385 875.491 225.802C875.491 223.218 876.366 221.052 878.116 219.302C879.866 217.552 882.032 216.677 884.616 216.677C887.116 216.677 889.241 217.552 890.991 219.302C892.741 221.052 893.616 223.218 893.616 225.802C893.616 228.385 892.741 230.552 890.991 232.302C889.241 234.052 887.116 234.927 884.616 234.927ZM937.642 234.927C931.809 234.927 926.559 233.927 921.892 231.927C917.225 229.843 913.559 226.927 910.892 223.177C908.225 219.427 906.892 215.052 906.892 210.052H922.142C922.475 213.802 923.934 216.885 926.517 219.302C929.184 221.718 932.892 222.927 937.642 222.927C942.559 222.927 946.392 221.76 949.142 219.427C951.892 217.01 953.267 213.927 953.267 210.177C953.267 207.26 952.392 204.885 950.642 203.052C948.975 201.218 946.85 199.802 944.267 198.802C941.767 197.802 938.267 196.718 933.767 195.552C928.1 194.052 923.475 192.552 919.892 191.052C916.392 189.468 913.392 187.052 910.892 183.802C908.392 180.552 907.142 176.218 907.142 170.802C907.142 165.802 908.392 161.427 910.892 157.677C913.392 153.927 916.892 151.052 921.392 149.052C925.892 147.052 931.1 146.052 937.017 146.052C945.434 146.052 952.309 148.177 957.642 152.427C963.059 156.593 966.059 162.343 966.642 169.677H950.892C950.642 166.51 949.142 163.802 946.392 161.552C943.642 159.302 940.017 158.177 935.517 158.177C931.434 158.177 928.1 159.218 925.517 161.302C922.934 163.385 921.642 166.385 921.642 170.302C921.642 172.968 922.434 175.177 924.017 176.927C925.684 178.593 927.767 179.927 930.267 180.927C932.767 181.927 936.184 183.01 940.517 184.177C946.267 185.76 950.934 187.343 954.517 188.927C958.184 190.51 961.267 192.968 963.767 196.302C966.35 199.552 967.642 203.927 967.642 209.427C967.642 213.843 966.434 218.01 964.017 221.927C961.684 225.843 958.225 229.01 953.642 231.427C949.142 233.76 943.809 234.927 937.642 234.927ZM1024.08 234.927C1016 234.927 1008.54 233.052 1001.71 229.302C994.957 225.468 989.582 220.177 985.582 213.427C981.665 206.593 979.707 198.927 979.707 190.427C979.707 181.927 981.665 174.302 985.582 167.552C989.582 160.802 994.957 155.552 1001.71 151.802C1008.54 147.968 1016 146.052 1024.08 146.052C1032.25 146.052 1039.71 147.968 1046.46 151.802C1053.29 155.552 1058.66 160.802 1062.58 167.552C1066.5 174.302 1068.46 181.927 1068.46 190.427C1068.46 198.927 1066.5 206.593 1062.58 213.427C1058.66 220.177 1053.29 225.468 1046.46 229.302C1039.71 233.052 1032.25 234.927 1024.08 234.927ZM1024.08 222.552C1029.83 222.552 1034.96 221.26 1039.46 218.677C1043.96 216.01 1047.46 212.26 1049.96 207.427C1052.54 202.51 1053.83 196.843 1053.83 190.427C1053.83 184.01 1052.54 178.385 1049.96 173.552C1047.46 168.718 1043.96 165.01 1039.46 162.427C1034.96 159.843 1029.83 158.552 1024.08 158.552C1018.33 158.552 1013.21 159.843 1008.71 162.427C1004.21 165.01 1000.66 168.718 998.082 173.552C995.582 178.385 994.332 184.01 994.332 190.427C994.332 196.843 995.582 202.51 998.082 207.427C1000.66 212.26 1004.21 216.01 1008.71 218.677C1013.21 221.26 1018.33 222.552 1024.08 222.552ZM1130.35 234.052L1096.73 195.177V234.052H1082.48V147.177H1096.73V186.802L1130.48 147.177H1148.35L1110.6 190.677L1148.98 234.052H1130.35ZM1201.21 234.927C1193.12 234.927 1185.66 233.052 1178.83 229.302C1172.08 225.468 1166.71 220.177 1162.71 213.427C1158.79 206.593 1156.83 198.927 1156.83 190.427C1156.83 181.927 1158.79 174.302 1162.71 167.552C1166.71 160.802 1172.08 155.552 1178.83 151.802C1185.66 147.968 1193.12 146.052 1201.21 146.052C1209.37 146.052 1216.83 147.968 1223.58 151.802C1230.41 155.552 1235.79 160.802 1239.71 167.552C1243.62 174.302 1245.58 181.927 1245.58 190.427C1245.58 198.927 1243.62 206.593 1239.71 213.427C1235.79 220.177 1230.41 225.468 1223.58 229.302C1216.83 233.052 1209.37 234.927 1201.21 234.927ZM1201.21 222.552C1206.96 222.552 1212.08 221.26 1216.58 218.677C1221.08 216.01 1224.58 212.26 1227.08 207.427C1229.66 202.51 1230.96 196.843 1230.96 190.427C1230.96 184.01 1229.66 178.385 1227.08 173.552C1224.58 168.718 1221.08 165.01 1216.58 162.427C1212.08 159.843 1206.96 158.552 1201.21 158.552C1195.46 158.552 1190.33 159.843 1185.83 162.427C1181.33 165.01 1177.79 168.718 1175.21 173.552C1172.71 178.385 1171.46 184.01 1171.46 190.427C1171.46 196.843 1172.71 202.51 1175.21 207.427C1177.79 212.26 1181.33 216.01 1185.83 218.677C1190.33 221.26 1195.46 222.552 1201.21 222.552ZM1273.85 222.552H1303.23V234.052H1259.6V147.177H1273.85V222.552Z" fill="#D4D4D4"/>
<path d="M386.725 277.366C387.145 276.689 387.717 276.141 388.44 275.721C389.163 275.301 389.933 275.091 390.75 275.091H397.54L389.175 288.426C388.592 289.359 387.997 290.118 387.39 290.701C386.783 291.261 386.048 291.704 385.185 292.031C386.352 292.381 387.308 292.906 388.055 293.606C388.802 294.283 389.478 295.146 390.085 296.196L398.485 311.001H392.5C390.983 311.001 389.805 310.744 388.965 310.231C388.125 309.718 387.413 308.983 386.83 308.026L381.545 298.086C381.078 297.223 380.472 296.581 379.725 296.161C379.002 295.741 378.15 295.531 377.17 295.531H373.915V311.001H365.27V275.091H373.915V289.896H376.715C377.695 289.896 378.477 289.721 379.06 289.371C379.667 288.998 380.18 288.438 380.6 287.691L386.725 277.366ZM422.248 295.671C419.751 295.788 417.651 296.009 415.948 296.336C414.244 296.639 412.879 297.036 411.853 297.526C410.826 298.016 410.091 298.588 409.648 299.241C409.204 299.894 408.983 300.606 408.983 301.376C408.983 302.893 409.426 303.978 410.313 304.631C411.223 305.284 412.401 305.611 413.848 305.611C415.621 305.611 417.149 305.296 418.433 304.666C419.739 304.013 421.011 303.033 422.248 301.726V295.671ZM402.438 280.096C406.568 276.316 411.538 274.426 417.348 274.426C419.448 274.426 421.326 274.776 422.983 275.476C424.639 276.153 426.039 277.109 427.183 278.346C428.326 279.559 429.189 281.018 429.773 282.721C430.379 284.424 430.683 286.291 430.683 288.321V311.001H426.763C425.946 311.001 425.316 310.884 424.873 310.651C424.429 310.394 424.079 309.893 423.823 309.146L423.053 306.556C422.143 307.373 421.256 308.096 420.393 308.726C419.529 309.333 418.631 309.846 417.698 310.266C416.764 310.686 415.761 311.001 414.688 311.211C413.638 311.444 412.471 311.561 411.188 311.561C409.671 311.561 408.271 311.363 406.988 310.966C405.704 310.546 404.596 309.928 403.663 309.111C402.729 308.294 402.006 307.279 401.493 306.066C400.979 304.853 400.723 303.441 400.723 301.831C400.723 300.921 400.874 300.023 401.178 299.136C401.481 298.226 401.971 297.363 402.648 296.546C403.348 295.729 404.246 294.959 405.343 294.236C406.439 293.513 407.781 292.883 409.368 292.346C410.978 291.809 412.844 291.378 414.968 291.051C417.091 290.701 419.518 290.491 422.248 290.421V288.321C422.248 285.918 421.734 284.144 420.708 283.001C419.681 281.834 418.199 281.251 416.263 281.251C414.863 281.251 413.696 281.414 412.763 281.741C411.853 282.068 411.048 282.441 410.348 282.861C409.648 283.258 409.006 283.619 408.423 283.946C407.863 284.273 407.233 284.436 406.533 284.436C405.926 284.436 405.413 284.284 404.993 283.981C404.573 283.654 404.234 283.281 403.978 282.861L402.438 280.096ZM467.175 275.091V311.001H458.53V296.896C455.45 297.643 452.591 298.074 449.955 298.191C447.318 298.284 445.031 297.969 443.095 297.246C441.181 296.499 439.676 295.298 438.58 293.641C437.506 291.984 436.97 289.779 436.97 287.026V275.091H445.615V285.696C445.615 287.166 445.848 288.356 446.315 289.266C446.805 290.153 447.563 290.794 448.59 291.191C449.64 291.588 450.981 291.751 452.615 291.681C454.248 291.611 456.22 291.343 458.53 290.876V275.091H467.175ZM498.874 288.916C498.874 287.796 498.71 286.746 498.384 285.766C498.08 284.763 497.614 283.888 496.984 283.141C496.354 282.394 495.549 281.811 494.569 281.391C493.612 280.948 492.492 280.726 491.209 280.726C488.712 280.726 486.74 281.438 485.294 282.861C483.87 284.284 482.96 286.303 482.564 288.916H498.874ZM482.389 294.131C482.529 295.974 482.855 297.573 483.369 298.926C483.882 300.256 484.559 301.364 485.399 302.251C486.239 303.114 487.23 303.768 488.374 304.211C489.54 304.631 490.824 304.841 492.224 304.841C493.624 304.841 494.825 304.678 495.829 304.351C496.855 304.024 497.742 303.663 498.489 303.266C499.259 302.869 499.924 302.508 500.484 302.181C501.067 301.854 501.627 301.691 502.164 301.691C502.887 301.691 503.424 301.959 503.774 302.496L506.259 305.646C505.302 306.766 504.229 307.711 503.039 308.481C501.849 309.228 500.6 309.834 499.294 310.301C498.01 310.744 496.692 311.059 495.339 311.246C494.009 311.433 492.714 311.526 491.454 311.526C488.957 311.526 486.635 311.118 484.489 310.301C482.342 309.461 480.475 308.236 478.889 306.626C477.302 304.993 476.054 302.986 475.144 300.606C474.234 298.203 473.779 295.426 473.779 292.276C473.779 289.826 474.175 287.528 474.969 285.381C475.762 283.211 476.894 281.333 478.364 279.746C479.857 278.136 481.665 276.864 483.789 275.931C485.935 274.998 488.35 274.531 491.034 274.531C493.297 274.531 495.385 274.893 497.299 275.616C499.212 276.339 500.857 277.401 502.234 278.801C503.61 280.178 504.684 281.881 505.454 283.911C506.247 285.918 506.644 288.216 506.644 290.806C506.644 292.113 506.504 292.999 506.224 293.466C505.944 293.909 505.407 294.131 504.614 294.131H482.389ZM538.856 282.686C538.6 283.013 538.343 283.269 538.086 283.456C537.853 283.643 537.503 283.736 537.036 283.736C536.593 283.736 536.161 283.608 535.741 283.351C535.321 283.071 534.82 282.768 534.236 282.441C533.653 282.091 532.953 281.788 532.136 281.531C531.343 281.251 530.351 281.111 529.161 281.111C527.645 281.111 526.315 281.391 525.171 281.951C524.028 282.488 523.071 283.269 522.301 284.296C521.555 285.323 520.995 286.571 520.621 288.041C520.248 289.488 520.061 291.133 520.061 292.976C520.061 294.889 520.26 296.593 520.656 298.086C521.076 299.579 521.671 300.839 522.441 301.866C523.211 302.869 524.145 303.639 525.241 304.176C526.338 304.689 527.575 304.946 528.951 304.946C530.328 304.946 531.436 304.783 532.276 304.456C533.14 304.106 533.863 303.733 534.446 303.336C535.03 302.916 535.531 302.543 535.951 302.216C536.395 301.866 536.885 301.691 537.421 301.691C538.121 301.691 538.646 301.959 538.996 302.496L541.481 305.646C540.525 306.766 539.486 307.711 538.366 308.481C537.246 309.228 536.08 309.834 534.866 310.301C533.676 310.744 532.44 311.059 531.156 311.246C529.896 311.433 528.636 311.526 527.376 311.526C525.16 311.526 523.071 311.118 521.111 310.301C519.151 309.461 517.436 308.248 515.966 306.661C514.496 305.074 513.33 303.138 512.466 300.851C511.626 298.541 511.206 295.916 511.206 292.976C511.206 290.339 511.58 287.901 512.326 285.661C513.096 283.398 514.216 281.449 515.686 279.816C517.156 278.159 518.976 276.864 521.146 275.931C523.316 274.998 525.813 274.531 528.636 274.531C531.32 274.531 533.665 274.963 535.671 275.826C537.701 276.689 539.521 277.926 541.131 279.536L538.856 282.686ZM577.701 281.496H564.891V311.001H556.246V281.496H543.471V275.091H577.701V281.496ZM597.455 305.086C599.275 305.086 600.71 304.643 601.76 303.756C602.833 302.869 603.37 301.656 603.37 300.116C603.37 299.463 603.276 298.856 603.09 298.296C602.926 297.713 602.623 297.211 602.18 296.791C601.736 296.371 601.13 296.044 600.36 295.811C599.613 295.578 598.656 295.461 597.49 295.461H591.015V305.086H597.455ZM591.015 280.726V290.141H596.685C597.525 290.141 598.295 290.024 598.995 289.791C599.695 289.534 600.301 289.184 600.815 288.741C601.328 288.274 601.725 287.738 602.005 287.131C602.285 286.501 602.425 285.813 602.425 285.066C602.425 284.529 602.331 284.004 602.145 283.491C601.958 282.954 601.643 282.488 601.2 282.091C600.756 281.671 600.161 281.344 599.415 281.111C598.691 280.854 597.781 280.726 596.685 280.726H591.015ZM596.93 275.091C599.193 275.091 601.141 275.313 602.775 275.756C604.431 276.199 605.796 276.806 606.87 277.576C607.943 278.346 608.736 279.268 609.25 280.341C609.763 281.391 610.02 282.534 610.02 283.771C610.02 284.541 609.915 285.346 609.705 286.186C609.518 287.003 609.168 287.796 608.655 288.566C608.165 289.336 607.488 290.036 606.625 290.666C605.761 291.296 604.665 291.786 603.335 292.136C604.525 292.393 605.61 292.754 606.59 293.221C607.57 293.664 608.41 294.236 609.11 294.936C609.81 295.613 610.346 296.418 610.72 297.351C611.116 298.261 611.315 299.288 611.315 300.431C611.315 302.251 610.93 303.826 610.16 305.156C609.413 306.486 608.398 307.583 607.115 308.446C605.855 309.309 604.385 309.951 602.705 310.371C601.048 310.791 599.31 311.001 597.49 311.001H582.79V275.091H596.93ZM633.885 274.531C636.545 274.531 638.96 274.963 641.13 275.826C643.323 276.689 645.19 277.914 646.73 279.501C648.293 281.088 649.495 283.024 650.335 285.311C651.175 287.598 651.595 290.153 651.595 292.976C651.595 295.823 651.175 298.389 650.335 300.676C649.495 302.963 648.293 304.911 646.73 306.521C645.19 308.131 643.323 309.368 641.13 310.231C638.96 311.094 636.545 311.526 633.885 311.526C631.201 311.526 628.763 311.094 626.57 310.231C624.376 309.368 622.498 308.131 620.935 306.521C619.395 304.911 618.193 302.963 617.33 300.676C616.49 298.389 616.07 295.823 616.07 292.976C616.07 290.153 616.49 287.598 617.33 285.311C618.193 283.024 619.395 281.088 620.935 279.501C622.498 277.914 624.376 276.689 626.57 275.826C628.763 274.963 631.201 274.531 633.885 274.531ZM633.885 304.876C636.871 304.876 639.076 303.873 640.5 301.866C641.946 299.859 642.67 296.919 642.67 293.046C642.67 289.173 641.946 286.221 640.5 284.191C639.076 282.161 636.871 281.146 633.885 281.146C630.851 281.146 628.6 282.173 627.13 284.226C625.683 286.256 624.96 289.196 624.96 293.046C624.96 296.896 625.683 299.836 627.13 301.866C628.6 303.873 630.851 304.876 633.885 304.876ZM689.876 305.086C691.696 305.086 693.131 304.643 694.181 303.756C695.255 302.869 695.791 301.656 695.791 300.116C695.791 299.463 695.698 298.856 695.511 298.296C695.348 297.713 695.045 297.211 694.601 296.791C694.158 296.371 693.551 296.044 692.781 295.811C692.035 295.578 691.078 295.461 689.911 295.461H683.436V305.086H689.876ZM683.436 280.726V290.141H689.106C689.946 290.141 690.716 290.024 691.416 289.791C692.116 289.534 692.723 289.184 693.236 288.741C693.75 288.274 694.146 287.738 694.426 287.131C694.706 286.501 694.846 285.813 694.846 285.066C694.846 284.529 694.753 284.004 694.566 283.491C694.38 282.954 694.065 282.488 693.621 282.091C693.178 281.671 692.583 281.344 691.836 281.111C691.113 280.854 690.203 280.726 689.106 280.726H683.436ZM689.351 275.091C691.615 275.091 693.563 275.313 695.196 275.756C696.853 276.199 698.218 276.806 699.291 277.576C700.365 278.346 701.158 279.268 701.671 280.341C702.185 281.391 702.441 282.534 702.441 283.771C702.441 284.541 702.336 285.346 702.126 286.186C701.94 287.003 701.59 287.796 701.076 288.566C700.586 289.336 699.91 290.036 699.046 290.666C698.183 291.296 697.086 291.786 695.756 292.136C696.946 292.393 698.031 292.754 699.011 293.221C699.991 293.664 700.831 294.236 701.531 294.936C702.231 295.613 702.768 296.418 703.141 297.351C703.538 298.261 703.736 299.288 703.736 300.431C703.736 302.251 703.351 303.826 702.581 305.156C701.835 306.486 700.82 307.583 699.536 308.446C698.276 309.309 696.806 309.951 695.126 310.371C693.47 310.791 691.731 311.001 689.911 311.001H675.211V275.091H689.351ZM725.081 304.806C727.041 304.806 728.5 304.316 729.456 303.336C730.436 302.356 730.926 301.096 730.926 299.556C730.926 298.903 730.81 298.273 730.576 297.666C730.366 297.059 730.028 296.523 729.561 296.056C729.095 295.589 728.488 295.228 727.741 294.971C726.995 294.691 726.096 294.551 725.046 294.551H718.641V304.806H725.081ZM725.011 288.391C727.508 288.391 729.62 288.694 731.346 289.301C733.073 289.908 734.473 290.724 735.546 291.751C736.62 292.778 737.39 293.968 737.856 295.321C738.346 296.651 738.591 298.051 738.591 299.521C738.591 301.201 738.288 302.753 737.681 304.176C737.098 305.576 736.223 306.789 735.056 307.816C733.913 308.819 732.501 309.601 730.821 310.161C729.165 310.721 727.263 311.001 725.116 311.001H710.416V275.091H718.641V288.391H725.011ZM753.781 275.091V311.001H745.136V275.091H753.781ZM788.026 282.686C787.77 283.013 787.513 283.269 787.256 283.456C787.023 283.643 786.673 283.736 786.206 283.736C785.763 283.736 785.331 283.608 784.911 283.351C784.491 283.071 783.99 282.768 783.406 282.441C782.823 282.091 782.123 281.788 781.306 281.531C780.513 281.251 779.521 281.111 778.331 281.111C776.815 281.111 775.485 281.391 774.341 281.951C773.198 282.488 772.241 283.269 771.471 284.296C770.725 285.323 770.165 286.571 769.791 288.041C769.418 289.488 769.231 291.133 769.231 292.976C769.231 294.889 769.43 296.593 769.826 298.086C770.246 299.579 770.841 300.839 771.611 301.866C772.381 302.869 773.315 303.639 774.411 304.176C775.508 304.689 776.745 304.946 778.121 304.946C779.498 304.946 780.606 304.783 781.446 304.456C782.31 304.106 783.033 303.733 783.616 303.336C784.2 302.916 784.701 302.543 785.121 302.216C785.565 301.866 786.055 301.691 786.591 301.691C787.291 301.691 787.816 301.959 788.166 302.496L790.651 305.646C789.695 306.766 788.656 307.711 787.536 308.481C786.416 309.228 785.25 309.834 784.036 310.301C782.846 310.744 781.61 311.059 780.326 311.246C779.066 311.433 777.806 311.526 776.546 311.526C774.33 311.526 772.241 311.118 770.281 310.301C768.321 309.461 766.606 308.248 765.136 306.661C763.666 305.074 762.5 303.138 761.636 300.851C760.796 298.541 760.376 295.916 760.376 292.976C760.376 290.339 760.75 287.901 761.496 285.661C762.266 283.398 763.386 281.449 764.856 279.816C766.326 278.159 768.146 276.864 770.316 275.931C772.486 274.998 774.983 274.531 777.806 274.531C780.49 274.531 782.835 274.963 784.841 275.826C786.871 276.689 788.691 277.926 790.301 279.536L788.026 282.686ZM811.346 274.531C814.006 274.531 816.421 274.963 818.591 275.826C820.784 276.689 822.651 277.914 824.191 279.501C825.754 281.088 826.956 283.024 827.796 285.311C828.636 287.598 829.056 290.153 829.056 292.976C829.056 295.823 828.636 298.389 827.796 300.676C826.956 302.963 825.754 304.911 824.191 306.521C822.651 308.131 820.784 309.368 818.591 310.231C816.421 311.094 814.006 311.526 811.346 311.526C808.662 311.526 806.224 311.094 804.031 310.231C801.837 309.368 799.959 308.131 798.396 306.521C796.856 304.911 795.654 302.963 794.791 300.676C793.951 298.389 793.531 295.823 793.531 292.976C793.531 290.153 793.951 287.598 794.791 285.311C795.654 283.024 796.856 281.088 798.396 279.501C799.959 277.914 801.837 276.689 804.031 275.826C806.224 274.963 808.662 274.531 811.346 274.531ZM811.346 304.876C814.332 304.876 816.537 303.873 817.961 301.866C819.407 299.859 820.131 296.919 820.131 293.046C820.131 289.173 819.407 286.221 817.961 284.191C816.537 282.161 814.332 281.146 811.346 281.146C808.312 281.146 806.061 282.173 804.591 284.226C803.144 286.256 802.421 289.196 802.421 293.046C802.421 296.896 803.144 299.836 804.591 301.866C806.061 303.873 808.312 304.876 811.346 304.876ZM857.106 277.366C857.526 276.689 858.098 276.141 858.821 275.721C859.544 275.301 860.314 275.091 861.131 275.091H867.921L859.556 288.426C858.973 289.359 858.378 290.118 857.771 290.701C857.164 291.261 856.429 291.704 855.566 292.031C856.733 292.381 857.689 292.906 858.436 293.606C859.183 294.283 859.859 295.146 860.466 296.196L868.866 311.001H862.881C861.364 311.001 860.186 310.744 859.346 310.231C858.506 309.718 857.794 308.983 857.211 308.026L851.926 298.086C851.459 297.223 850.853 296.581 850.106 296.161C849.383 295.741 848.531 295.531 847.551 295.531H844.296V311.001H835.651V275.091H844.296V289.896H847.096C848.076 289.896 848.858 289.721 849.441 289.371C850.048 288.998 850.561 288.438 850.981 287.691L857.106 277.366ZM888.25 274.531C890.91 274.531 893.325 274.963 895.495 275.826C897.688 276.689 899.555 277.914 901.095 279.501C902.658 281.088 903.86 283.024 904.7 285.311C905.54 287.598 905.96 290.153 905.96 292.976C905.96 295.823 905.54 298.389 904.7 300.676C903.86 302.963 902.658 304.911 901.095 306.521C899.555 308.131 897.688 309.368 895.495 310.231C893.325 311.094 890.91 311.526 888.25 311.526C885.567 311.526 883.128 311.094 880.935 310.231C878.742 309.368 876.863 308.131 875.3 306.521C873.76 304.911 872.558 302.963 871.695 300.676C870.855 298.389 870.435 295.823 870.435 292.976C870.435 290.153 870.855 287.598 871.695 285.311C872.558 283.024 873.76 281.088 875.3 279.501C876.863 277.914 878.742 276.689 880.935 275.826C883.128 274.963 885.567 274.531 888.25 274.531ZM888.25 304.876C891.237 304.876 893.442 303.873 894.865 301.866C896.312 299.859 897.035 296.919 897.035 293.046C897.035 289.173 896.312 286.221 894.865 284.191C893.442 282.161 891.237 281.146 888.25 281.146C885.217 281.146 882.965 282.173 881.495 284.226C880.048 286.256 879.325 289.196 879.325 293.046C879.325 296.896 880.048 299.836 881.495 301.866C882.965 303.873 885.217 304.876 888.25 304.876ZM936.88 281.496H921.2V311.001H912.555V275.091H936.88V281.496ZM956.746 274.531C959.406 274.531 961.821 274.963 963.991 275.826C966.184 276.689 968.051 277.914 969.591 279.501C971.154 281.088 972.356 283.024 973.196 285.311C974.036 287.598 974.456 290.153 974.456 292.976C974.456 295.823 974.036 298.389 973.196 300.676C972.356 302.963 971.154 304.911 969.591 306.521C968.051 308.131 966.184 309.368 963.991 310.231C961.821 311.094 959.406 311.526 956.746 311.526C954.063 311.526 951.624 311.094 949.431 310.231C947.238 309.368 945.359 308.131 943.796 306.521C942.256 304.911 941.054 302.963 940.191 300.676C939.351 298.389 938.931 295.823 938.931 292.976C938.931 290.153 939.351 287.598 940.191 285.311C941.054 283.024 942.256 281.088 943.796 279.501C945.359 277.914 947.238 276.689 949.431 275.826C951.624 274.963 954.063 274.531 956.746 274.531ZM956.746 304.876C959.733 304.876 961.938 303.873 963.361 301.866C964.808 299.859 965.531 296.919 965.531 293.046C965.531 289.173 964.808 286.221 963.361 284.191C961.938 282.161 959.733 281.146 956.746 281.146C953.713 281.146 951.461 282.173 949.991 284.226C948.544 286.256 947.821 289.196 947.821 293.046C947.821 296.896 948.544 299.836 949.991 301.866C951.461 303.873 953.713 304.876 956.746 304.876ZM1029.36 311.001H1020.72V281.496H1006.72V311.001H998.073V275.091H1029.36V311.001ZM1053.82 274.531C1056.48 274.531 1058.89 274.963 1061.06 275.826C1063.25 276.689 1065.12 277.914 1066.66 279.501C1068.22 281.088 1069.43 283.024 1070.27 285.311C1071.11 287.598 1071.53 290.153 1071.53 292.976C1071.53 295.823 1071.11 298.389 1070.27 300.676C1069.43 302.963 1068.22 304.911 1066.66 306.521C1065.12 308.131 1063.25 309.368 1061.06 310.231C1058.89 311.094 1056.48 311.526 1053.82 311.526C1051.13 311.526 1048.69 311.094 1046.5 310.231C1044.31 309.368 1042.43 308.131 1040.87 306.521C1039.33 304.911 1038.12 302.963 1037.26 300.676C1036.42 298.389 1036 295.823 1036 292.976C1036 290.153 1036.42 287.598 1037.26 285.311C1038.12 283.024 1039.33 281.088 1040.87 279.501C1042.43 277.914 1044.31 276.689 1046.5 275.826C1048.69 274.963 1051.13 274.531 1053.82 274.531ZM1053.82 304.876C1056.8 304.876 1059.01 303.873 1060.43 301.866C1061.88 299.859 1062.6 296.919 1062.6 293.046C1062.6 289.173 1061.88 286.221 1060.43 284.191C1059.01 282.161 1056.8 281.146 1053.82 281.146C1050.78 281.146 1048.53 282.173 1047.06 284.226C1045.61 286.256 1044.89 289.196 1044.89 293.046C1044.89 296.896 1045.61 299.836 1047.06 301.866C1048.53 303.873 1050.78 304.876 1053.82 304.876ZM1110.55 311.001H1101.91V281.706H1093.09C1092.81 286.116 1092.38 289.919 1091.79 293.116C1091.21 296.289 1090.51 298.984 1089.69 301.201C1088.9 303.418 1088 305.203 1087 306.556C1086.02 307.886 1084.97 308.924 1083.85 309.671C1082.73 310.418 1081.57 310.908 1080.38 311.141C1079.19 311.398 1077.99 311.526 1076.78 311.526C1075.49 311.526 1074.55 311.409 1073.94 311.176C1073.36 310.966 1073.07 310.663 1073.07 310.266V304.876H1075.13C1075.9 304.876 1076.67 304.759 1077.44 304.526C1078.21 304.293 1078.96 303.814 1079.68 303.091C1080.41 302.368 1081.09 301.341 1081.75 300.011C1082.4 298.658 1083 296.884 1083.53 294.691C1084.09 292.474 1084.58 289.768 1085 286.571C1085.42 283.374 1085.75 279.548 1085.98 275.091H1110.55V311.001ZM1142.2 288.916C1142.2 287.796 1142.04 286.746 1141.71 285.766C1141.41 284.763 1140.94 283.888 1140.31 283.141C1139.68 282.394 1138.88 281.811 1137.9 281.391C1136.94 280.948 1135.82 280.726 1134.54 280.726C1132.04 280.726 1130.07 281.438 1128.62 282.861C1127.2 284.284 1126.29 286.303 1125.89 288.916H1142.2ZM1125.72 294.131C1125.86 295.974 1126.19 297.573 1126.7 298.926C1127.21 300.256 1127.89 301.364 1128.73 302.251C1129.57 303.114 1130.56 303.768 1131.7 304.211C1132.87 304.631 1134.15 304.841 1135.55 304.841C1136.95 304.841 1138.16 304.678 1139.16 304.351C1140.19 304.024 1141.07 303.663 1141.82 303.266C1142.59 302.869 1143.25 302.508 1143.81 302.181C1144.4 301.854 1144.96 301.691 1145.49 301.691C1146.22 301.691 1146.75 301.959 1147.1 302.496L1149.59 305.646C1148.63 306.766 1147.56 307.711 1146.37 308.481C1145.18 309.228 1143.93 309.834 1142.62 310.301C1141.34 310.744 1140.02 311.059 1138.67 311.246C1137.34 311.433 1136.04 311.526 1134.78 311.526C1132.29 311.526 1129.97 311.118 1127.82 310.301C1125.67 309.461 1123.81 308.236 1122.22 306.626C1120.63 304.993 1119.38 302.986 1118.47 300.606C1117.56 298.203 1117.11 295.426 1117.11 292.276C1117.11 289.826 1117.51 287.528 1118.3 285.381C1119.09 283.211 1120.22 281.333 1121.69 279.746C1123.19 278.136 1125 276.864 1127.12 275.931C1129.27 274.998 1131.68 274.531 1134.36 274.531C1136.63 274.531 1138.72 274.893 1140.63 275.616C1142.54 276.339 1144.19 277.401 1145.56 278.801C1146.94 280.178 1148.01 281.881 1148.78 283.911C1149.58 285.918 1149.97 288.216 1149.97 290.806C1149.97 292.113 1149.83 292.999 1149.55 293.466C1149.27 293.909 1148.74 294.131 1147.94 294.131H1125.72ZM1186.99 281.496H1174.18V311.001H1165.53V281.496H1152.76V275.091H1186.99V281.496ZM1210.84 295.671C1208.34 295.788 1206.24 296.009 1204.54 296.336C1202.84 296.639 1201.47 297.036 1200.45 297.526C1199.42 298.016 1198.68 298.588 1198.24 299.241C1197.8 299.894 1197.58 300.606 1197.58 301.376C1197.58 302.893 1198.02 303.978 1198.91 304.631C1199.82 305.284 1200.99 305.611 1202.44 305.611C1204.21 305.611 1205.74 305.296 1207.03 304.666C1208.33 304.013 1209.6 303.033 1210.84 301.726V295.671ZM1191.03 280.096C1195.16 276.316 1200.13 274.426 1205.94 274.426C1208.04 274.426 1209.92 274.776 1211.58 275.476C1213.23 276.153 1214.63 277.109 1215.78 278.346C1216.92 279.559 1217.78 281.018 1218.37 282.721C1218.97 284.424 1219.28 286.291 1219.28 288.321V311.001H1215.36C1214.54 311.001 1213.91 310.884 1213.47 310.651C1213.02 310.394 1212.67 309.893 1212.42 309.146L1211.65 306.556C1210.74 307.373 1209.85 308.096 1208.99 308.726C1208.12 309.333 1207.22 309.846 1206.29 310.266C1205.36 310.686 1204.35 311.001 1203.28 311.211C1202.23 311.444 1201.06 311.561 1199.78 311.561C1198.26 311.561 1196.86 311.363 1195.58 310.966C1194.3 310.546 1193.19 309.928 1192.26 309.111C1191.32 308.294 1190.6 307.279 1190.09 306.066C1189.57 304.853 1189.32 303.441 1189.32 301.831C1189.32 300.921 1189.47 300.023 1189.77 299.136C1190.07 298.226 1190.56 297.363 1191.24 296.546C1191.94 295.729 1192.84 294.959 1193.94 294.236C1195.03 293.513 1196.37 292.883 1197.96 292.346C1199.57 291.809 1201.44 291.378 1203.56 291.051C1205.68 290.701 1208.11 290.491 1210.84 290.421V288.321C1210.84 285.918 1210.33 284.144 1209.3 283.001C1208.27 281.834 1206.79 281.251 1204.86 281.251C1203.46 281.251 1202.29 281.414 1201.36 281.741C1200.45 282.068 1199.64 282.441 1198.94 282.861C1198.24 283.258 1197.6 283.619 1197.02 283.946C1196.46 284.273 1195.83 284.436 1195.13 284.436C1194.52 284.436 1194.01 284.284 1193.59 283.981C1193.17 283.654 1192.83 283.281 1192.57 282.861L1191.03 280.096Z" fill="#D4D4D4"/>
</svg>
