<svg width="115" height="100" viewBox="0 0 115 100" fill="none" xmlns="http://www.w3.org/2000/svg">
<path fill-rule="evenodd" clip-rule="evenodd" d="M24.6375 60.5713C24.8837 60.6546 25.1322 60.7131 25.3804 60.7491C25.6512 61.3857 26.001 62.2086 26.4091 63.1709C27.405 65.5196 28.7469 68.6967 30.132 72.0106C32.9568 78.7693 35.8061 85.7361 36.4354 87.7305C37.2144 90.1956 38.0379 91.8716 38.9368 93.0162C39.4016 93.6078 39.9393 94.1241 40.5683 94.5156C40.8849 94.7124 41.2194 94.8739 41.5686 94.9942C41.584 94.9998 41.5993 95.0049 41.6147 95.01C43.4146 95.6894 45.0555 95.4065 46.0829 95.0606C46.6326 94.875 47.0774 94.6517 47.3926 94.4706C47.5534 94.3778 47.6891 94.2918 47.7975 94.2186L47.823 94.2018L63.7182 84.289L82.0793 98.3654C82.3498 98.573 82.6457 98.7473 82.9584 98.884C85.1642 99.8463 87.3003 100.182 89.3093 99.9076C91.3155 99.6337 92.9077 98.7912 94.0933 97.8424C95.2542 96.9138 96.0416 95.8733 96.5315 95.1005C96.7817 94.7057 96.9696 94.3564 97.1023 94.0893C97.1687 93.9549 97.2221 93.839 97.2637 93.7462L97.3166 93.6236L97.3369 93.5752L97.3453 93.555L97.3487 93.5454L97.3526 93.5364C97.4488 93.2951 97.523 93.0454 97.5736 92.7906L114.335 8.28311C114.389 8.01287 114.416 7.73795 114.416 7.46242C114.416 4.98767 113.483 2.63447 111.291 1.20652C109.417 -0.0139486 107.329 -0.0664793 106.01 0.033633C104.587 0.141676 103.272 0.493024 102.39 0.773732C101.931 0.919851 101.546 1.0608 101.269 1.16833C101.129 1.22238 101.015 1.26878 100.93 1.30416L100.866 1.33104L6.86315 38.2069L6.851 38.2114C6.7911 38.2333 6.71416 38.262 6.62276 38.2975C6.44076 38.3683 6.19684 38.4679 5.91197 38.5972C5.3564 38.8492 4.57699 39.2423 3.77716 39.7902C2.49937 40.6653 -0.439262 43.0618 0.0555627 47.0174C0.450332 50.1731 2.6122 52.1113 3.92935 53.0432C4.65257 53.555 5.33969 53.9206 5.84009 54.1591C6.0722 54.2693 6.5542 54.465 6.76331 54.5505L6.81613 54.5719L24.6375 60.5713ZM104.156 9.09931L104.143 9.10505C104.096 9.12541 104.049 9.14487 104.001 9.16354L9.88423 46.0843C9.83508 46.1034 9.78558 46.122 9.73575 46.1394L9.68339 46.1591C9.62315 46.1827 9.5218 46.2238 9.39458 46.2811C9.32242 46.3138 9.24711 46.3498 9.17034 46.388C9.2758 46.4476 9.37675 46.4988 9.46646 46.5415C9.55257 46.5826 9.61826 46.6107 9.6542 46.6253L27.3293 52.5758C27.6528 52.685 27.9543 52.8289 28.2312 53.0033L86.5933 18.8384L86.6479 18.8062C86.6901 18.781 86.7463 18.7487 86.8132 18.7109C86.946 18.6358 87.1282 18.5359 87.3453 18.4253C87.7503 18.2192 88.3987 17.9132 89.1288 17.6875C89.6366 17.5305 91.1355 17.0879 92.7559 17.6076C93.7559 17.9284 94.7913 18.618 95.4651 19.7861C95.7992 20.3665 95.9775 20.9495 96.0641 21.4832C96.2936 22.3239 96.257 23.1541 96.0776 23.8708C95.6906 25.4147 94.6063 26.619 93.6192 27.5402C92.7733 28.3299 81.8318 38.8801 71.0382 49.2952C65.6552 54.4887 60.3279 59.6315 56.3454 63.4752L53.7301 66.0005L86.7553 91.3199C87.5129 91.591 87.9606 91.5775 88.1676 91.5488C88.4145 91.515 88.6164 91.42 88.8228 91.2552C89.0534 91.0707 89.2553 90.821 89.4061 90.5831L89.4122 90.5735L105.669 8.6109C105.428 8.66888 105.184 8.73795 104.949 8.81275C104.683 8.89751 104.463 8.97828 104.318 9.03469C104.245 9.06264 104.193 9.08384 104.165 9.09554L104.156 9.09931ZM56.567 78.8064L49.9781 73.7547L48.3819 83.9104L56.567 78.8064ZM43.934 63.7311L50.486 57.4054C54.4685 53.5612 59.797 48.4184 65.1806 43.2238L70.6502 37.9471L33.9794 59.4139L34.1762 59.8779C35.1756 62.235 36.5235 65.4257 37.916 68.7575C38.9572 71.2485 40.046 73.8716 41.0377 76.3002L42.6296 66.1742C42.783 65.1979 43.2599 64.3531 43.934 63.7311Z" fill="black"/>
</svg>
